<?xml version="1.0" standalone="no"?>
<!DOCTYPE svg PUBLIC "-//W3C//DTD SVG 20010904//EN"
 "http://www.w3.org/TR/2001/REC-SVG-20010904/DTD/svg10.dtd">
<svg version="1.0" xmlns="http://www.w3.org/2000/svg"
 width="512.000000pt" height="512.000000pt" viewBox="0 0 512.000000 512.000000"
 preserveAspectRatio="xMidYMid meet">
<metadata>
Created by potrace 1.14, written by Peter Selinger 2001-2017
</metadata>
<g transform="translate(0.000000,512.000000) scale(0.100000,-0.100000)"
fill="#000000" stroke="none">
<path d="M2280 4994 c-120 -15 -348 -60 -400 -79 -19 -7 -73 -25 -120 -40
-330 -108 -664 -318 -930 -584 -237 -238 -400 -479 -528 -781 -63 -149 -128
-364 -147 -480 -3 -19 -10 -60 -15 -90 -25 -145 -34 -479 -17 -635 49 -443
207 -850 467 -1200 95 -127 128 -165 263 -298 263 -259 560 -442 927 -569 155
-54 284 -83 505 -113 95 -12 501 -14 550 -2 11 2 45 8 75 12 158 20 417 90
575 155 72 30 249 118 303 151 35 21 66 39 68 39 2 0 34 21 72 47 297 205 546
468 730 769 166 271 289 616 327 915 3 24 8 62 11 84 4 22 7 128 9 235 3 209
-10 348 -49 545 -72 357 -256 737 -510 1050 -66 81 -265 276 -351 345 -343
272 -775 460 -1190 515 -27 4 -61 9 -75 12 -55 11 -449 9 -550 -3z"/>
</g>
</svg>
